<?xml version="1.0" standalone="no"?>
<!DOCTYPE svg PUBLIC "-//W3C//DTD SVG 20010904//EN"
 "http://www.w3.org/TR/2001/REC-SVG-20010904/DTD/svg10.dtd">
<svg version="1.0" xmlns="http://www.w3.org/2000/svg"
 width="35.000000pt" height="35.000000pt" viewBox="0 0 35.000000 35.000000"
 preserveAspectRatio="xMidYMid meet">
<metadata>
Created by potrace 1.16, written by Peter Selinger 2001-2019
</metadata>
<g transform="translate(0.000000,35.000000) scale(0.003571,-0.003571)"
fill="#000000" stroke="none">
<path d="M4635 9793 c-883 -53 -1697 -320 -2425 -797 -425 -279 -835 -656
-1164 -1071 -807 -1019 -1170 -2339 -1005 -3650 187 -1481 1054 -2805 2347
-3582 1633 -981 3720 -913 5292 173 411 284 788 641 1103 1047 718 922 1084
2123 1006 3302 -68 1044 -453 2008 -1127 2825 -121 146 -472 498 -622 621
-811 672 -1781 1060 -2825 1129 -137 9 -457 11 -580 3z m611 -253 c614 -49
1176 -203 1716 -470 1209 -598 2103 -1696 2442 -3000 171 -658 194 -1379 65
-2050 -250 -1297 -1047 -2435 -2184 -3115 -538 -322 -1161 -538 -1790 -620
-406 -53 -925 -45 -1331 20 -582 94 -1150 300 -1650 601 -1228 737 -2049 1991
-2229 3402 -48 377 -48 807 0 1184 136 1067 641 2055 1430 2799 770 724 1759
1162 2820 1248 148 12 563 12 711 1z"/>
<path d="M7147 7230 c-99 -38 -190 -141 -238 -269 -11 -31 -32 -108 -45 -171
-13 -63 -26 -125 -29 -137 l-5 -23 -2093 -2 -2092 -3 -56 -26 c-74 -35 -134
-91 -167 -153 -20 -40 -26 -69 -30 -136 -3 -78 0 -99 46 -260 28 -96 110 -393
182 -660 190 -702 197 -728 231 -787 59 -103 151 -178 275 -225 l59 -23 1613
-3 1612 -2 0 -23 c-1 -12 -29 -175 -63 -362 l-62 -340 -35 -17 c-33 -17 -133
-18 -1666 -18 -897 0 -1646 -3 -1663 -6 -42 -9 -89 -56 -96 -98 -9 -45 16
-101 57 -126 33 -20 46 -20 1685 -20 1185 0 1667 3 1705 11 61 13 132 47 176
84 68 57 72 71 231 965 258 1439 418 2306 446 2414 19 73 60 151 91 170 18 13
83 16 367 18 331 3 347 4 374 24 15 11 36 37 47 58 16 32 17 44 7 75 -6 20
-22 48 -37 62 l-26 24 -376 2 c-350 2 -381 1 -425 -17z m-367 -860 c0 -6 -47
-268 -105 -583 -57 -314 -127 -700 -155 -857 -27 -157 -52 -295 -55 -307 l-5
-23 -1598 0 c-1786 0 -1665 -5 -1746 70 -24 22 -50 57 -59 77 -9 21 -71 241
-137 488 -67 248 -157 579 -201 736 -43 157 -79 304 -79 327 0 37 4 45 33 62
32 20 56 20 2070 20 1356 0 2037 -3 2037 -10z"/>
<path d="M3433 2976 c-183 -45 -344 -210 -382 -394 -56 -267 103 -528 368
-606 30 -9 91 -16 136 -16 237 0 440 156 501 385 19 68 17 200 -2 266 -79 270
-352 430 -621 365z m241 -261 c86 -42 137 -121 144 -223 5 -79 -16 -140 -70
-198 -56 -60 -125 -88 -208 -82 -141 10 -236 104 -248 245 -9 111 50 211 153
260 41 20 62 23 120 21 42 -2 86 -11 109 -23z"/>
<path d="M5751 2974 c-126 -34 -256 -133 -318 -244 -94 -167 -87 -382 18 -539
157 -235 473 -304 705 -153 143 94 227 231 240 397 8 95 -8 175 -56 271 -106
215 -358 330 -589 268z m245 -258 c27 -13 66 -42 87 -66 144 -169 39 -422
-183 -438 -57 -4 -76 -1 -121 20 -171 78 -216 282 -95 425 68 81 208 107 312
59z"/>
</g>
</svg>
